# xmcd
#
# Track frame offsets: 
#        150
#        14359
#        26841
#        41065
#        52211
#        63428
#        74844
#        86194
#        96825
#        109312
#        119036
#        131766
#
# Disc length: 1927 seconds
#
# Revision: 0
# Processed by: cddbd v1.5.2PL0 Copyright (c) Steve Scherf et al.
# Submitted via: ExactAudioCopy v1.0b4
#
DISCID=c007850c
DTITLE=Bo Diddley - Profile (LP)
DYEAR=1900
DGENRE=Blues
TTITLE0=You Can' t Judge A Book By The Cover
TTITLE1=Roadrunner
TTITLE2=Say Man
TTITLE3=Diddley Daddy
TTITLE4=Diddey Wah Diddey
TTITLE5=I' m Looking For A Woman
TTITLE6=Who Do You Love7
TTITLE7=Bo Diddley
TTITLE8=I' m A Man
TTITLE9=Hey Bo Diddley
TTITLE10=Dearest Darling
TTITLE11=When The Saints Go Marching In
EXTD=
EXTT0=
EXTT1=
EXTT2=
EXTT3=
EXTT4=
EXTT5=
EXTT6=
EXTT7=
EXTT8=
EXTT9=
EXTT10=
EXTT11=
PLAYORDER=
